<?xml version="1.0" standalone="no"?>
<!DOCTYPE svg PUBLIC "-//W3C//DTD SVG 20010904//EN"
 "http://www.w3.org/TR/2001/REC-SVG-20010904/DTD/svg10.dtd">
<svg version="1.0" xmlns="http://www.w3.org/2000/svg"
 width="1080.000000pt" height="1080.000000pt" viewBox="0 0 1080.000000 1080.000000"
 preserveAspectRatio="xMidYMid meet">
<metadata>
Created by potrace 1.14, written by Peter Selinger 2001-2017
</metadata>
<g transform="translate(0.000000,1080.000000) scale(0.100000,-0.100000)"
fill="#000000" stroke="none">
<path d="M5125 9783 c-269 -12 -419 -33 -665 -89 -350 -81 -679 -208 -1045
-402 -1071 -569 -1795 -1475 -2135 -2668 -60 -208 -84 -328 -104 -504 -54
-469 -44 -1009 25 -1375 174 -934 598 -1714 1281 -2358 631 -595 1286 -931
2148 -1101 281 -55 349 -61 745 -61 520 0 761 27 1126 126 1472 399 2567 1461
3024 2932 95 304 133 536 155 947 13 235 13 429 0 645 -15 241 -31 351 -90
601 -378 1614 -1644 2863 -3268 3223 -125 28 -265 55 -312 61 -201 24 -634 35
-885 23z m666 -268 c895 -94 1651 -444 2344 -1082 222 -204 354 -361 528 -626
383 -581 564 -1050 648 -1682 21 -151 23 -213 24 -555 0 -418 -5 -492 -56
-744 -33 -168 -60 -269 -126 -471 -149 -459 -356 -846 -650 -1215 -122 -153
-539 -578 -592 -602 -37 -17 -61 -14 -61 8 0 32 -37 120 -117 281 l-86 172
101 108 c180 194 344 344 459 421 130 88 171 200 122 332 -52 139 -53 149 -29
299 43 263 13 607 -74 874 -153 467 -559 822 -1081 943 -96 22 -348 25 -490 5
-407 -56 -605 -151 -871 -416 -136 -136 -210 -228 -294 -365 -68 -113 -86
-166 -130 -383 -21 -103 -55 -243 -74 -312 -20 -68 -36 -131 -36 -140 0 -8 24
-64 54 -123 67 -134 106 -233 106 -266 0 -15 -14 -41 -34 -63 -48 -55 -59 -80
-58 -140 0 -68 24 -136 67 -195 45 -61 97 -88 170 -88 75 0 103 -17 164 -99
135 -181 392 -373 613 -456 48 -18 76 -40 65 -51 -12 -12 -136 18 -228 56
l-94 38 -74 -147 c-137 -271 -164 -357 -206 -657 -27 -187 -44 -254 -65 -254
-16 0 -26 33 -105 345 -106 417 -431 1579 -455 1625 -5 10 -67 30 -167 54
-363 89 -498 139 -528 196 -34 66 -9 122 74 165 51 25 116 75 227 171 88 76
148 112 243 144 41 14 78 32 84 40 11 19 -5 58 -63 149 -22 36 -40 75 -40 88
0 37 42 56 142 63 136 10 141 24 78 214 l-39 118 92 41 c158 71 310 151 321
170 14 22 -12 44 -154 128 -124 73 -195 125 -216 157 -14 22 -14 25 1 42 10
11 58 34 109 52 106 37 461 212 524 258 24 17 40 35 36 42 -6 10 -233 122
-447 221 l-78 36 83 78 c154 144 399 388 410 407 14 26 0 32 -96 40 -101 9
-311 42 -391 62 -108 27 -125 34 -125 54 0 24 60 138 190 360 116 198 164 294
150 298 -5 2 -130 -38 -278 -88 -148 -50 -292 -93 -319 -97 -51 -5 -51 -5 -61
28 -37 119 -64 359 -66 579 -1 226 3 220 -98 169 -136 -68 -310 -203 -490
-377 -64 -63 -121 -111 -127 -108 -5 3 -92 108 -194 234 -202 249 -272 322
-311 322 -28 0 -32 -9 -41 -95 -17 -161 -114 -560 -147 -602 -11 -14 -76 4
-283 80 -249 91 -352 116 -370 87 -3 -5 19 -69 50 -142 31 -73 68 -171 81
-218 27 -91 55 -268 44 -275 -14 -8 -234 -35 -415 -50 -306 -25 -405 -39 -405
-56 0 -5 64 -76 143 -158 208 -217 334 -401 307 -451 -17 -31 -144 -135 -307
-252 -187 -133 -221 -164 -202 -182 8 -7 68 -32 134 -55 141 -49 223 -92 323
-168 80 -62 122 -109 122 -140 0 -20 -52 -82 -191 -229 -80 -85 -135 -166
-124 -184 11 -17 113 -65 225 -105 58 -21 129 -48 158 -61 48 -21 52 -26 52
-56 -1 -38 -17 -113 -55 -252 -15 -54 -24 -109 -21 -122 10 -37 59 -45 241
-37 l161 6 10 -112 c16 -173 54 -205 164 -137 32 20 69 36 82 36 13 0 58 -21
99 -47 68 -43 115 -67 232 -117 39 -17 57 -46 57 -94 0 -71 -42 -93 -416 -217
-157 -53 -299 -102 -314 -110 -22 -11 -35 -33 -59 -102 -51 -138 -115 -352
-217 -718 -53 -187 -97 -341 -99 -343 -3 -4 -138 152 -257 298 -439 539 -713
1090 -858 1725 -50 219 -61 335 -67 720 -5 344 4 602 28 760 16 103 82 372
127 515 409 1297 1419 2284 2707 2644 273 76 442 106 795 139 110 11 523 5
651 -8z m-2065 -2931 c185 -88 255 -217 228 -418 l-7 -46 -312 0 c-172 0 -327
3 -344 6 -95 19 -84 191 23 346 50 74 100 111 191 143 84 29 102 26 221 -31z
m839 -133 c189 -39 325 -134 325 -226 0 -64 -19 -106 -56 -121 -32 -13 -46
-13 -137 5 -56 11 -158 28 -227 36 -319 40 -310 36 -310 123 0 103 49 174 135
195 48 11 187 5 270 -12z m-1365 -1563 c55 -138 88 -205 128 -270 13 -21 14
-30 5 -39 -20 -20 -47 12 -102 120 -49 95 -121 300 -121 343 0 45 29 -6 90
-154z m3463 -215 c91 -151 114 -234 97 -351 -15 -108 -56 -189 -133 -267 -107
-107 -224 -151 -376 -143 -102 6 -183 37 -279 105 -112 79 -164 174 -177 319
l-7 82 39 6 c21 3 113 17 206 31 318 49 393 78 507 196 41 43 78 78 82 78 4 1
22 -25 41 -56z m492 26 c11 -32 81 -105 130 -133 44 -27 148 -58 250 -75 43
-8 395 -41 432 -41 4 0 -8 -104 -19 -160 -25 -135 -119 -249 -253 -307 -78
-35 -133 -46 -225 -46 -149 0 -269 50 -361 151 -79 86 -102 146 -107 268 -5
135 24 237 95 332 28 37 49 41 58 11z m-2414 -940 c149 -273 302 -608 323
-713 26 -122 -4 -191 -154 -349 -86 -91 -137 -133 -147 -123 -12 12 21 56 114
157 97 105 146 169 163 214 14 36 -41 174 -208 520 -146 304 -212 451 -212
468 1 25 51 -47 121 -174z m-241 31 c39 -136 88 -483 111 -782 11 -150 8 -208
-10 -208 -22 0 -48 176 -96 640 -19 190 -37 363 -41 385 -5 38 -4 39 10 20 9
-10 21 -35 26 -55z m-710 -125 c0 -86 -36 -637 -44 -660 -1 -5 -6 94 -9 220
-8 274 3 523 23 535 25 16 30 0 30 -95z m-321 -922 c57 -42 121 -106 138 -137
19 -37 10 -74 -22 -82 -31 -8 -44 1 -38 25 7 27 -11 55 -83 132 -35 38 -64 73
-64 79 0 18 32 11 69 -17z"/>
</g>
</svg>
